<?xml version="1.0" encoding="utf-8"?>
<!-- Generator: Adobe Illustrator 24.0.0, SVG Export Plug-In . SVG Version: 6.00 Build 0)  -->
<svg version="1.1" id="content" xmlns="http://www.w3.org/2000/svg" xmlns:xlink="http://www.w3.org/1999/xlink" x="0px" y="0px"
	 viewBox="0 0 935 183" style="enable-background:new 0 0 935 183;" xml:space="preserve">
<style type="text/css">
	.st0{fill:#FFFFFF;}
	.st1{clip-path:url(#SVGID_2_);}
	.st2{clip-path:url(#SVGID_4_);fill:#FFFFFF;}
	.st3{clip-path:url(#SVGID_6_);fill:#FFFFFF;}
	.st4{clip-path:url(#SVGID_8_);fill:#FFFFFF;}
</style>
<g>
	<path class="st0" d="M226.6,91.6c0-19.1,13.4-33.4,32.3-33.4c15,0,23.7,8.8,27.5,18l-10.8,4.5c-3.1-7.4-8.8-11.8-17.5-11.8
		c-10,0-19.7,9.1-19.7,22.7c0,13.6,9.7,22.7,19.7,22.7c8.7,0,15.1-4.5,18.2-11.8l10.5,4.5c-3.8,9.2-12.9,18-27.9,18
		C240,125,226.6,110.6,226.6,91.6z"/>
	<path class="st0" d="M307.5,60.3L307,69h0.5c3.3-5.8,11.3-10.8,19.8-10.8c16,0,23.9,10.9,23.9,26.4V123h-11.8V86.4
		c0-13.1-6.5-17.4-15.5-17.4c-10.2,0-16.5,9.7-16.5,19.3V123h-11.8V31.3h11.8v29H307.5z"/>
	<path class="st0" d="M363.8,123V60.3h11.3v10.2h0.5c2.6-7.2,11.6-11.8,18.2-11.8c3.8,0,6.4,0.5,8.8,1.5l-4.5,11
		c-1.7-0.6-3.7-0.9-6.3-0.9c-8.1,0-16.3,6.8-16.3,18.3V123H363.8z"/>
	<path class="st0" d="M468,91.6c0,19.1-13.4,33.4-32.3,33.4s-32.3-14.3-32.3-33.4s13.4-33.4,32.3-33.4S468,72.6,468,91.6z
		 M456.2,91.6c0-14.3-10-22.7-20.5-22.7s-20.5,8.3-20.5,22.7c0,14.3,10,22.7,20.5,22.7S456.2,106,456.2,91.6z"/>
	<path class="st0" d="M477.5,60.3h11.3V69h0.5c3.6-6,11.9-10.8,19.3-10.8c10.1,0,16.6,4.6,19.8,12c4.5-7,12.2-12,21.9-12
		c15.4,0,22.4,10.9,22.4,26.4V123h-11.8V86.4c0-13.1-5-17.4-14-17.4c-9.6,0-16,9.7-16,19.3V123h-11.8V86.4c0-13.1-5-17.4-14-17.4
		c-9.6,0-16,9.7-16,19.3V123h-11.8V60.3H477.5z"/>
	<path class="st0" d="M581.7,91.6c0-17.8,12.3-33.4,30.7-33.4c18.7,0,30.7,13.2,30.7,33.4c0,0.9-0.1,2.2-0.1,2.2h-49.5
		c0.6,13.3,10.2,20.5,20,20.5c6.9,0,13.8-2.8,17.2-10.8l10.5,4.4c-3.7,9-12.9,17.2-27.4,17.2C594.5,125,581.7,110.6,581.7,91.6z
		 M612.1,69c-8.7,0-15.6,5.9-17.9,15.1h36.4C630.2,78.6,625.6,69,612.1,69z"/>
	<path class="st0" d="M664.3,114.3h-0.5v8.7h-11.3V31.3h11.8v28.9l-0.5,8.7h0.5c3.6-5.8,11.4-10.8,21.4-10.8
		c15.9,0,29.8,14.2,29.8,33.4s-14,33.4-29.8,33.4C675.7,125,667.9,120.1,664.3,114.3z M703.8,91.6c0-14.1-9.5-22.7-20-22.7
		s-20,8.3-20,22.7c0,14.3,9.5,22.7,20,22.7S703.8,105.7,703.8,91.6z"/>
	<path class="st0" d="M786.6,91.6c0,19.1-13.4,33.4-32.3,33.4S722,110.7,722,91.6s13.4-33.4,32.3-33.4S786.6,72.6,786.6,91.6z
		 M774.8,91.6c0-14.3-10-22.7-20.5-22.7s-20.5,8.3-20.5,22.7c0,14.3,10,22.7,20.5,22.7S774.8,106,774.8,91.6z"/>
	<path class="st0" d="M857.6,91.6c0,19.1-13.4,33.4-32.3,33.4c-18.8,0-32.3-14.3-32.3-33.4s13.4-33.4,32.3-33.4
		C844.2,58.2,857.6,72.6,857.6,91.6z M845.8,91.6c0-14.3-10-22.7-20.5-22.7s-20.5,8.3-20.5,22.7c0,14.3,10,22.7,20.5,22.7
		C835.9,114.3,845.8,106,845.8,91.6z"/>
	<path class="st0" d="M878.2,87.4l26.6-27.1h15.6v0.5L896,85.2l25.6,37.2v0.5h-14.2l-19.7-29.6l-9.5,9.5V123h-11.8V31.3h11.8V87.4z"
		/>
</g>
<g>
	<g>
		<defs>
			<circle id="SVGID_1_" cx="90" cy="90" r="88"/>
		</defs>
		<clipPath id="SVGID_2_">
			<use xlink:href="#SVGID_1_"  style="overflow:visible;"/>
		</clipPath>
		<g class="st1">
			<circle class="st0" cx="90" cy="90" r="32"/>
		</g>
	</g>
	<g>
		<defs>
			<circle id="SVGID_3_" cx="90" cy="90" r="88"/>
		</defs>
		<clipPath id="SVGID_4_">
			<use xlink:href="#SVGID_3_"  style="overflow:visible;"/>
		</clipPath>
		<path class="st2" d="M114,58c9.7,7.3,16,18.9,16,32c0,7.3-2,14.1-5.4,20l0,0l0,0l0,0l-39.3,68h0.4l0,0l0,0H178V58H114z"/>
	</g>
	<g>
		<defs>
			<circle id="SVGID_5_" cx="90" cy="90" r="88"/>
		</defs>
		<clipPath id="SVGID_6_">
			<use xlink:href="#SVGID_5_"  style="overflow:visible;"/>
		</clipPath>
		<path class="st3" d="M55.4,110L55.4,110L55.4,110L55.4,110L16,41.8v0.7l-14-24V178h74.1l29.6-51.2c-4.8,2.1-10.1,3.2-15.7,3.2
			C75.2,130,62.3,122,55.4,110z"/>
	</g>
	<g>
		<defs>
			<circle id="SVGID_7_" cx="90" cy="90" r="88"/>
		</defs>
		<clipPath id="SVGID_8_">
			<use xlink:href="#SVGID_7_"  style="overflow:visible;"/>
		</clipPath>
		<path class="st4" d="M16,2v23.8l34.3,59.4C52.7,65.4,69.5,50,90,50h88V2L16,2L16,2z"/>
	</g>
</g>
</svg>
